The.Avengers.2012.DVDRip.XviD.AC3-NYDIC WITH GREEK SUBTITLES IN SEPARATE SRT FILE

Plot: Nick Fury of S.H.I.E.L.D. brings together a team of super humans to form 
The Avengers to help save the Earth from Loki and his army.

Director: Joss Whedon
Writers: Zak Penn (story), Joss Whedon (story)
Stars:Robert Downey Jr., Chris Evans and Scarlett Johansson
Genres:Action | Adventure | Sci-Fi
Country:USA
Language:English

Format : AVI
Format/Info : Audio Video Interleave
File size : 2.16 GiB
Duration : 2h 17mn
Overall bit rate : 2 252 Kbps

Video
ID : 0
Format : MPEG-4 Visual
Format profile : Simple@L3
Format settings, BVOP : No
Format settings, QPel : No
Format settings, GMC : No warppoints
Format settings, Matrix : Default (H.263)
Codec ID : XVID
Codec ID/Hint : XviD
Duration : 2h 17mn
Source duration : 2h 17mn
Bit rate : 1 857 Kbps
Width : 720 pixels
Height : 384 pixels
Display aspect ratio : 1.85:1
Frame rate : 25.000 fps
Color space : YUV
Chroma subsampling : 4:2:0
Bit depth : 8 bits
Scan type : Progressive
Compression mode : Lossy
Bits/(Pixel*Frame) : 0.269
Stream size : 1.78 GiB (82%)
Writing library : XviD 1.1.2 (UTC 2006-11-01)

Audio
ID : 1
Format : AC-3
Format/Info : Audio Coding 3
Mode extension : CM (complete main)
Format settings, Endianness : Big
Codec ID : 2000
Duration : 2h 17mn
Bit rate mode : Constant
Bit rate : 384 Kbps
Channel(s) : 6 channels
Channel positions : Front: L C R, Side: L R, LFE
Sampling rate : 48.0 KHz
Bit depth : 16 bits
Compression mode : Lossy
Stream size : 376 MiB (17%)
Alignment : Aligned on interleaves
Interleave, duration : 32 ms (0.80 video frame)
Interleave, preload duration : 32 ms